<?xml version="1.0" encoding="utf-8"?>
<!-- Generator: Adobe Illustrator 25.1.0, SVG Export Plug-In . SVG Version: 6.00 Build 0)  -->
<svg version="1.1" id="Calque_1" focusable="false" xmlns="http://www.w3.org/2000/svg" xmlns:xlink="http://www.w3.org/1999/xlink"
	 x="0px" y="0px" viewBox="0 0 35 30.6" style="enable-background:new 0 0 35 30.6;" xml:space="preserve">
<g>
	<path d="M31.3,2.2c-4-3.3-10.1-2.8-13.8,1c-3.8-3.8-9.9-4.4-13.8-1c-5.1,4.3-4.4,11.4-0.7,15.1l12,12.2c0.7,0.7,1.6,1.1,2.6,1.1
		c1,0,1.9-0.4,2.6-1.1l12-12.2C35.7,13.6,36.5,6.5,31.3,2.2z M29.7,15l-12,12.2c-0.2,0.2-0.3,0.2-0.5,0L5.3,15
		c-2.5-2.5-3-7.4,0.5-10.3c2.7-2.2,6.8-1.9,9.3,0.7l2.4,2.4l2.4-2.4c2.6-2.6,6.7-3,9.3-0.7C32.7,7.7,32.2,12.5,29.7,15z"/>
</g>
</svg>
